<svg xmlns="http://www.w3.org/2000/svg" viewBox="0 0 324.2 55.2"><defs><style>.cls-1{fill:#bdc8c4;}.cls-2{fill:#ea7200;}</style></defs><title>Asset 1</title><g id="Layer_2" data-name="Layer 2"><g id="Layer_1-2" data-name="Layer 1"><path class="cls-1" d="M130.1,49.2a16.63,16.63,0,0,1-7.5,1.6c-11.8,0-15.2-12.8-15.2-20.5h23.5c0-7.6-2.4-16-15.1-16-12.4,0-16.7,7.9-16.7,18.7,0,15.8,8.7,22.2,19.6,22.2A28.06,28.06,0,0,0,130.2,53V49.2ZM107.6,26.5c.2-2.2,1.4-8.8,7.8-8.8,6.2,0,7.3,5.8,7.3,8.8Z"/><path class="cls-1" d="M213.8,55.2c11.5,0,17.4-7.2,17.4-20.4s-5.8-20.5-17.4-20.5-17.3,7.2-17.3,20.5,5.7,20.4,17.3,20.4m-8.3-20.5c0-7.1.9-17,8.2-17s8.3,9.9,8.3,17-.9,17-8.3,17-8.2-9.8-8.2-17"/><path class="cls-1" d="M323.6,53.2a31.54,31.54,0,0,1-10.5,2c-12.4,0-19.7-7.5-19.7-22,0-11.7,5.4-18.9,16.7-18.9,10.6,0,14.1,5.6,14.1,13.6h-8.7c0-4.7-.5-10.2-5.7-10.2-4.8,0-7.3,5.6-7.3,12.7,0,9.5,4,20.4,14.1,20.4a19.13,19.13,0,0,0,7-1.5v3.9Z"/><path class="cls-2" d="M288.5,5.5A5.5,5.5,0,1,1,283,0a5.42,5.42,0,0,1,5.5,5.5"/><path class="cls-1" d="M0,31.2c.9-3,12.9-16.9,20.4-16.9,6.9,0,9.5,5.6,9.7,9.7h.2c1.4-3,4.1-9.7,11.9-9.7,8.3,0,9.9,6.8,9.9,13.5V54.3H43.8V29.1c0-4.5-.7-8.6-4.8-8.6-7.3,0-8.7,12.8-8.7,17.6V54.4H22V29.8c0-4.9-.4-9.4-4.9-9.4-7.7,0-8.6,13.5-8.6,17.7V54.3H0Z"/><path class="cls-1" d="M137.3,31.2c.9-3,12.9-16.9,20.4-16.9,6.9,0,9.5,5.6,9.7,9.7h.2c1.4-3,4.1-9.7,11.9-9.7,8.3,0,9.9,6.8,9.9,13.5V54.3h-8.3V29.1c0-4.5-.7-8.6-4.8-8.6-7.3,0-8.7,12.8-8.7,17.6V54.4h-8.5V29.8c0-4.9-.4-9.4-4.9-9.4-7.7,0-8.6,13.5-8.6,17.7V54.3h-8.3Z"/><path class="cls-1" d="M60.3,31.2c1.3-2.9,13.6-16.9,22.3-16.9,6.9,0,9.9,5.7,9.9,11.4V54.3H84.2V29.8c0-4.9-.7-9.4-4.9-9.4-8.2,0-10.6,12.8-10.6,17.7V54.3H60.4l-.1-23.1Z"/><path class="cls-1" d="M238.3,31.2c1.3-2.9,13.6-16.9,22.3-16.9,6.9,0,9.9,5.7,9.9,11.4V54.3h-8.3V29.8c0-4.9-.7-9.4-4.9-9.4-8.2,0-10.5,12.8-10.5,17.7V54.3h-8.3V31.2Z"/><rect class="cls-1" x="278.6" y="15.6" width="8.3" height="38.7"/></g></g></svg>